<svg xmlns="http://www.w3.org/2000/svg" width="42" height="42"><g transform="translate(1 1)" fill="none" fill-rule="evenodd"><circle cx="20" cy="20" r="20" fill="#FFF" stroke="#E2E2E2"/><g fill-rule="nonzero"><path fill="#EA4335" d="M19.914 14.392c1.691 0 2.832.73 3.482 1.34l2.541-2.48c-1.56-1.452-3.592-2.342-6.023-2.342a9 9 0 0 0-8.044 4.962l2.912 2.261c.73-2.17 2.751-3.741 5.132-3.741z"/><path fill="#4285F4" d="M28.558 20.114c0-.74-.06-1.28-.19-1.84h-8.454v3.341h4.963c-.1.83-.64 2.081-1.841 2.922l2.841 2.2c1.701-1.57 2.681-3.881 2.681-6.623z"/><path fill="#FBBC05" d="M14.792 21.695a5.54 5.54 0 0 1-.3-1.78c0-.621.11-1.221.29-1.782l-2.912-2.26a9.001 9.001 0 0 0-.96 4.04c0 1.451.35 2.822.96 4.042l2.922-2.26z"/><path fill="#34A853" d="M19.914 28.919c2.431 0 4.472-.8 5.963-2.181l-2.841-2.201c-.76.53-1.781.9-3.122.9-2.38 0-4.402-1.57-5.122-3.742l-2.912 2.261c1.481 2.942 4.513 4.963 8.034 4.963z"/></g></g></svg>