<svg xmlns="http://www.w3.org/2000/svg" width="40" height="40"><g fill="none" fill-rule="evenodd"><circle cx="20" cy="20" r="20" fill="#FFE600"/><path fill="#391B1B" d="M15.792 24.995c-.78-.605-1.579-1.106-2.228-1.748-2.534-2.505-2.277-6.053.559-8.42 3.345-2.791 9.286-2.801 12.641-.021 3.208 2.657 3.087 6.762-.288 9.224-2.155 1.572-4.615 2.044-7.261 1.81a.972.972 0 0 0-.564.127c-1.023.647-2.028 1.32-3.047 1.97-.133.085-.315.098-.474.144-.015-.168-.077-.348-.038-.503.229-.894.48-1.782.7-2.583"/></g></svg>